{"title":"Barbie of Swan Lake.2003(HINDI-490MB)Dvdrip.aaaevilacharya ","uid":5843435,"size":513402264,"categoryP":"video","categoryS":"movies","magnet":"?xt=urn:btih:3427fdab3a2424a1ec0549c6d9b58ba56a343470&amp;dn=Barbie+of+Swan+Lake.2003%28HINDI-490MB%29Dvdrip.aaaevilacharya+&amp;tr=udp%3A%2F%2Ftracker.openbittorrent.com%3A80&amp;tr=udp%3A%2F%2Fopen.demonii.com%3A1337&amp;tr=udp%3A%2F%2Ftracker.coppersurfer.tk%3A6969&amp;tr=udp%3A%2F%2Fexodus.desync.com%3A6969","seeders":1,"leechers":2,"uploader":"achaevil","files":2,"time":1285057997,"description":"General\nComplete name : Barbie of Swan Lake.2003(Hindi)Dvdrip.aaaevilacharya\nFormat : AVI\nFormat/Info : Audio Video Interleave\nFile size : 489 MiB\nDuration : 1h 17mn\nOverall bit rate : 887 Kbps\nWriting library : MPlayer\n\nVideo\nID : 0\nFormat : MPEG-4 Visual\nFormat profile : Simple@L1\nFormat settings, BVOP : No\nFormat settings, QPel : No\nFormat settings, GMC : No warppoints\nFormat settings, Matrix : Default (H.263)\nCodec ID : DX50\nCodec ID/Hint : DivX 5\nDuration : 1h 17mn\nBit rate : 761 Kbps\nWidth : 720 pixels\nHeight : 320 pixels\nDisplay aspect ratio : 2.25:1\nFrame rate : 29.970 fps\nColor space : YUV\nChroma subsampling : 4:2:0\nBit depth : 8 bits\nScan type : Interlaced\nScan order : Top Field First\nBits/(Pixel*Frame) : 0.110\nStream size : 420 MiB (86%)\nWriting library : Lavc52.30.1\n\nAudio\nID : 1\nFormat : MPEG Audio\nFormat version : Version 1\nFormat profile : Layer 3\nMode : Joint stereo\nMode extension : MS Stereo\nCodec ID : 55\nCodec ID/Hint : MP3\nDuration : 1h 17mn\nBit rate mode : Constant\nBit rate : 112 Kbps\nChannel(s) : 2 channels\nSampling rate : 44.1 KHz\nStream size : 61.8 MiB (13%)\nAlignment : Aligned on interleaves\nInterleave, duration : 26 ms (0.78 video frame)\nInterleave, preload duration : 809 ms\nWriting library : LAME3.98.2\n\nenjoy kidssss","torrent":{"xt":"urn:btih:3427fdab3a2424a1ec0549c6d9b58ba56a343470","amp;dn":"Barbie+of+Swan+Lake.2003%28HINDI-490MB%29Dvdrip.aaaevilacharya+","amp;tr":["udp%3A%2F%2Ftracker.openbittorrent.com%3A80","udp%3A%2F%2Fopen.demonii.com%3A1337","udp%3A%2F%2Ftracker.coppersurfer.tk%3A6969","udp%3A%2F%2Fexodus.desync.com%3A6969"],"infoHash":"3427fdab3a2424a1ec0549c6d9b58ba56a343470","infoHashBuffer":{"type":"Buffer","data":[52,39,253,171,58,36,36,161,236,5,73,198,217,181,139,165,106,52,52,112]},"announce":[],"urlList":[]}}